<svg xmlns="http://www.w3.org/2000/svg" xml:space="preserve" viewBox="0 0 512 512"><path fill="#087345" d="M180.2 16c-3.1-.1-5.5.9-9.3 2.7q-17 8-21.8 42.4c-3.2 23.5 2.1 61.4 17.7 125.2 21.3 87.2 22 100.3 7.4 134.9-14.9 35-47 70.7-109.7 121.9-35.8 29.3-50.8 44.8-48.2 49.8 4.5 8.6 16.4.9 64.7-42.1 79.6-70.9 131.1-94.5 175.3-80.4 17.6 5.6 33 13.3 83.5 41.5 53.4 30 78.4 39.9 104.7 42 16 1.2 20.8.5 30-4.3 15-7.8 17.3-14.4 14-41.1-2.2-18.4-2-22.8 1.7-35 6.9-22.3 7.2-27.3 3.2-44.4-2.6-11-4-29-4.3-56-.8-79.5-12.7-100.2-57.4-99.9a90 90 0 0 0-30.5 4.6c-18.2 7.8-21.2 4.8-10.8-11.1a87 87 0 0 0 15.1-48.6c.1-18.7-3.9-29.2-15-39-10.8-9.7-44.2-22.7-74.3-29.1a127 127 0 0 1-38.8-13.8c-13.4-8.1-15-8.5-35.1-7.2a74 74 0 0 1-41.7-6.7 76 76 0 0 0-20.4-6.3"/></svg>