<svg xmlns="http://www.w3.org/2000/svg" xml:space="preserve" viewBox="0 0 570.1 570"><path fill="#fff" d="M203.7 0C194-.3 187 3 182.2 5.3c-23.6 11.1-33.8 37-37.7 65.1v.1c-4.4 31.7 3 77 19.6 145 11.5 47 17 73.5 18 89.8.8 16.3-1.3 23-8.7 40.6-13.5 31.6-45 68-111.6 122.5-23.4 19.1-50.5 41.9-58.3 57.6a30 30 0 0 0-.3 27.2 31 31 0 0 0 22.5 16.5c7.6 1.2 14.5-.8 19-2.7 15.6-6.4 40-27.9 67.4-52.3 84.3-75 130.8-93 165.7-82 16.8 5.4 31.3 12.6 85.8 43 59.6 33.5 89.7 46 123.7 48.6 22 1.7 31.5.2 46-7.4 26.2-13.6 33.3-30.1 28.4-69.6-1.1-9.7-1.4-14.6-1.3-17.3.2-2.8.5-4.5 2.3-10.4 8.9-28.8 9.2-38.1 3.9-61v-.1c-2-8-3.7-26.7-4-55.2-.4-41.5-3.5-75.9-16.6-98.7-15-26.3-40-34.4-70.1-34.3h-.6q-4.5 0-8.6.2 5.2-17 5.3-34.7c.1-26.5-6.5-45-24.6-61.1-18.4-16.4-63-31.2-92-37.3h-.3l-.4-.2a113 113 0 0 1-34-12l-.4-.2c-18-10.8-24.4-12.6-51.7-10.9l-.8.1-.8.1a55 55 0 0 1-31.1-5h-.2q-13.9-6.6-28.8-9l-1.6-.2z"/><path fill="#087345" d="M203 25c-3.4-.1-6 1-10.2 3q-18.4 8.6-23.6 45.9c-3.4 25.4 2.3 66.5 19.2 135.6 23 94.5 23.8 108.7 8 146.2-16.1 37.9-50.9 76.5-118.8 132-38.8 31.8-55 48.6-52.2 54 4.8 9.3 17.7 1 70-45.6 86.3-76.9 142-102.4 190-87.1 19 6 35.7 14.4 90.4 45 57.9 32.4 85 43.1 113.5 45.4 17.3 1.3 22.5.6 32.5-4.6 16.2-8.5 18.7-15.6 15.1-44.6-2.4-19.9-2.1-24.7 1.9-37.9 7.4-24.1 7.8-29.6 3.4-48-2.8-12-4.3-31.5-4.6-60.8-.9-86-13.8-108.5-62.2-108.2a98 98 0 0 0-33 5c-19.8 8.4-23 5.2-11.8-12a94 94 0 0 0 16.4-52.7c.1-20.2-4.2-31.6-16.2-42.2-11.7-10.5-48-24.6-80.5-31.6a138 138 0 0 1-42-15c-14.6-8.7-16.3-9.1-38.1-7.7a80 80 0 0 1-45.2-7.3 82 82 0 0 0-22-6.8"/></svg>